<svg width="63" height="40" viewBox="0 0 63 40" fill="none" xmlns="http://www.w3.org/2000/svg">
<g clip-path="url(#clip0_348_1845)">
<path d="M63 39.8726C61.7855 39.915 60.5688 39.9574 59.3501 39.9998C57.4594 37.2134 55.5667 34.427 53.676 31.6406L52.6862 30.1859L51.0371 27.76L50.3101 26.6849C49.7527 25.8685 49.1995 25.052 48.6463 24.2335C44.8522 18.648 41.0582 13.0624 37.2642 7.47265C34.5681 3.49874 28.7265 3.47965 25.9987 7.43236C23.2093 11.4699 20.4284 15.5096 17.6433 19.5471L16.4712 21.2478L14.7713 23.7119L13.5419 25.4952C10.7695 29.52 7.99078 33.547 5.21626 37.5718C4.67577 38.3585 4.13104 39.1452 3.58843 39.9362C2.393 39.9129 1.19756 39.8938 0 39.8705C8.49948 27.6412 17.0011 15.4078 25.5048 3.17853C28.4531 -1.06682 34.7313 -1.05621 37.6669 3.1955L53.3263 25.8621C53.8795 26.6615 54.4327 27.4652 54.9838 28.2647C57.6566 32.1326 60.3315 36.0047 63.0021 39.8726H63Z" fill="#231F20"/>
<path d="M22.9652 24.1976L21.3988 26.4666L21.1953 26.7614C21.7846 25.9068 22.3759 25.0522 22.9652 24.1976Z" fill="#231F20"/>
<path d="M63 39.8726C61.7855 39.915 60.5688 39.9574 59.3501 39.9998C57.4594 37.2134 55.5667 34.427 53.676 31.6406L52.6862 30.1859L51.0371 27.76L50.3101 26.6849C49.7527 25.8685 49.1995 25.052 48.6463 24.2335C44.8522 18.648 41.0582 13.0624 37.2642 7.47265C34.5681 3.49874 28.7265 3.47965 25.9987 7.43236C23.2093 11.4699 20.4284 15.5096 17.6433 19.5471L16.4712 21.2478L14.7713 23.7119L13.5419 25.4952C10.7695 29.52 7.99078 33.547 5.21626 37.5718C4.67577 38.3585 4.13104 39.1452 3.58843 39.9362C2.393 39.9129 1.19756 39.8938 0 39.8705C8.49948 27.6412 17.0011 15.4078 25.5048 3.17853C28.4531 -1.06682 34.7313 -1.05621 37.6669 3.1955L53.3263 25.8621C53.8795 26.6615 54.4327 27.4652 54.9838 28.2647C57.6566 32.1326 60.3315 36.0047 63.0021 39.8726H63Z" fill="url(#paint0_linear_348_1845)"/>
<path d="M52.1055 39.9045C50.8867 39.9002 49.6637 39.8981 48.4428 39.8939C47.0651 37.9663 45.6874 36.0387 44.3118 34.1111L44.316 34.1069C41.8489 30.6525 39.3817 27.196 36.9145 23.7395C34.3562 20.1557 29.0212 20.1791 26.4947 23.7861C25.8503 24.7107 25.2102 25.6246 24.6083 26.4898L24.5404 26.5916C24.072 27.2575 23.6269 27.9 23.2136 28.4938C21.4671 31.049 19.7099 33.6085 17.938 36.1744C17.0774 37.4213 16.2148 38.6639 15.3542 39.9045H12.1367C12.5734 39.2704 15.0554 35.6676 15.4941 35.0335C16.6578 33.3435 20.0342 28.4492 21.2 26.7591L21.4035 26.4644L22.9698 24.1954C24.0508 22.6389 25.1318 21.0803 26.2107 19.5238C28.8771 15.6793 34.5385 15.622 37.2791 19.4093C39.9391 23.0842 42.5992 26.7591 45.2571 30.4341L46.4822 32.1284L46.4865 32.1326L48.1546 34.4334L49.1041 35.7439C50.1067 37.1308 51.1093 38.5176 52.1118 39.9045H52.1055Z" fill="url(#paint1_linear_348_1845)"/>
<path d="M22.9652 24.1976L21.3988 26.4666L21.1953 26.7614C21.7846 25.9068 22.3759 25.0522 22.9652 24.1976Z" fill="url(#paint2_linear_348_1845)"/>
</g>
<defs>
<linearGradient id="paint0_linear_348_1845" x1="31.3463" y1="-3.23402" x2="31.4991" y2="39.4909" gradientUnits="userSpaceOnUse">
<stop offset="0.05" stop-color="#BA872C"/>
<stop offset="0.1" stop-color="#C28E29"/>
<stop offset="0.18" stop-color="#DAA422"/>
<stop offset="0.24" stop-color="#EFB81C"/>
<stop offset="0.68" stop-color="#FEF38A"/>
<stop offset="0.84" stop-color="#EDCC66"/>
<stop offset="1" stop-color="#BA872C"/>
</linearGradient>
<linearGradient id="paint1_linear_348_1845" x1="31.3464" y1="-3.23396" x2="31.4991" y2="39.4909" gradientUnits="userSpaceOnUse">
<stop offset="0.05" stop-color="#BA872C"/>
<stop offset="0.1" stop-color="#C28E29"/>
<stop offset="0.18" stop-color="#DAA422"/>
<stop offset="0.24" stop-color="#EFB81C"/>
<stop offset="0.68" stop-color="#FEF38A"/>
<stop offset="0.84" stop-color="#EDCC66"/>
<stop offset="1" stop-color="#BA872C"/>
</linearGradient>
<linearGradient id="paint2_linear_348_1845" x1="31.3459" y1="-3.23384" x2="31.4987" y2="39.4911" gradientUnits="userSpaceOnUse">
<stop offset="0.05" stop-color="#BA872C"/>
<stop offset="0.1" stop-color="#C28E29"/>
<stop offset="0.18" stop-color="#DAA422"/>
<stop offset="0.24" stop-color="#EFB81C"/>
<stop offset="0.68" stop-color="#FEF38A"/>
<stop offset="0.84" stop-color="#EDCC66"/>
<stop offset="1" stop-color="#BA872C"/>
</linearGradient>
<clipPath id="clip0_348_1845">
<rect width="63" height="40" fill="white"/>
</clipPath>
</defs>
</svg>
