<?xml version="1.0" encoding="UTF-8"?><svg id="Layer_2" xmlns="http://www.w3.org/2000/svg" viewBox="0 0 150.74 133.17"><defs><style>.cls-1{fill:#a68459;}.cls-1,.cls-2{stroke-width:0px;}.cls-2{fill:#1d2335;}</style></defs><g id="Layer_1-2"><g id="_Radial_Repeat_"><path class="cls-1" d="M34.17,11.76c6.29,11.14,12.57,22.29,18.86,33.43,9.86,17.48,34.97,17.65,45.07.31,6.42-11.04,12.85-22.07,19.27-33.11,2.18-3.75.93-8.55-2.8-10.76l-.33-.19c-3.77-2.23-8.64-.96-10.84,2.83-6.34,10.95-12.69,21.89-19.03,32.84-3.92,6.77-13.71,6.74-17.59-.06-6.29-11.03-12.59-22.06-18.88-33.08-2.14-3.75-6.9-5.08-10.68-2.99h0c-3.83,2.12-5.19,6.96-3.04,10.77Z"/></g><g id="_Radial_Repeat_-2"><path class="cls-1" d="M142.93,57.47c-12.79-.13-25.59-.26-38.38-.39-20.07-.2-32.77,21.46-22.8,38.87,6.35,11.08,12.69,22.16,19.04,33.25,2.15,3.76,6.94,5.08,10.71,2.95l.33-.19c3.82-2.15,5.15-7.01,2.97-10.81-6.31-10.97-12.62-21.93-18.93-32.9-3.9-6.78,1.02-15.24,8.85-15.21,12.7.06,25.39.13,38.09.19,4.32.02,7.85-3.44,7.93-7.75h0c.07-4.38-3.43-7.98-7.81-8.02Z"/></g><g id="_Radial_Repeat_-3"><path class="cls-1" d="M48.97,128.8c6.51-11.02,13.02-22.03,19.53-33.05,10.21-17.28-2.2-39.11-22.27-39.18-12.77-.05-25.54-.09-38.31-.14-4.33-.02-7.87,3.47-7.92,7.8v.38c-.05,4.38,3.49,7.97,7.87,7.97,12.65.02,25.3.04,37.96.06,7.83.01,12.69,8.51,8.75,15.26-6.4,10.97-12.81,21.93-19.21,32.9-2.18,3.73-.95,8.52,2.75,10.74h0c3.75,2.25,8.62,1.02,10.85-2.75Z"/></g><circle class="cls-2" cx="75.37" cy="14.08" r="12.74"/><circle class="cls-2" cx="30.97" cy="40.85" r="12.74"/><circle class="cls-2" cx="31.32" cy="90.56" r="12.74"/><circle class="cls-2" cx="75.37" cy="117.05" r="12.74"/><circle class="cls-2" cx="119.41" cy="90.56" r="12.74"/><circle class="cls-2" cx="119.41" cy="39.57" r="12.74"/></g></svg>